{
	"patcher" : 	{
		"fileversion" : 1,
		"appversion" : 		{
			"major" : 8,
			"minor" : 1,
			"revision" : 4,
			"architecture" : "x64",
			"modernui" : 1
		}
,
		"classnamespace" : "box",
		"rect" : [ 34.0, 79.0, 227.0, 124.0 ],
		"bglocked" : 0,
		"openinpresentation" : 1,
		"default_fontsize" : 12.0,
		"default_fontface" : 0,
		"default_fontname" : "Arial",
		"gridonopen" : 1,
		"gridsize" : [ 8.0, 8.0 ],
		"gridsnaponopen" : 1,
		"objectsnaponopen" : 1,
		"statusbarvisible" : 2,
		"toolbarvisible" : 1,
		"lefttoolbarpinned" : 0,
		"toptoolbarpinned" : 0,
		"righttoolbarpinned" : 0,
		"bottomtoolbarpinned" : 0,
		"toolbars_unpinned_last_save" : 0,
		"tallnewobj" : 0,
		"boxanimatetime" : 200,
		"enablehscroll" : 1,
		"enablevscroll" : 0,
		"devicewidth" : 0.0,
		"description" : "Create a dutone video image",
		"digest" : "",
		"tags" : "Vizzie Effect, 2tonr",
		"style" : "",
		"subpatcher_template" : "",
		"assistshowspatchername" : 0,
		"boxes" : [ 			{
				"box" : 				{
					"fontname" : "Ableton Sans Bold Regular",
					"fontsize" : 9.0,
					"hint" : "Video input",
					"id" : "obj-41",
					"maxclass" : "comment",
					"numinlets" : 1,
					"numoutlets" : 0,
					"patching_rect" : [ 34.109558, 52.863525000000003, 41.0, 17.0 ],
					"presentation" : 1,
					"presentation_rect" : [ 1.474807977676392, 0.0, 35.0, 17.0 ],
					"text" : "Video",
					"textcolor" : [ 1.0, 1.0, 1.0, 1.0 ]
				}

			}
, 			{
				"box" : 				{
					"activebgcolor" : [ 0.1, 0.1, 0.1, 1.0 ],
					"activebgoncolor" : [ 1.0, 1.0, 1.0, 1.0 ],
					"bgcolor" : [ 0.1, 0.1, 0.1, 1.0 ],
					"bgoncolor" : [ 1.0, 1.0, 1.0, 1.0 ],
					"bordercolor" : [ 1.0, 1.0, 1.0, 1.0 ],
					"focusbordercolor" : [ 0.165741, 0.364658, 0.14032, 1.0 ],
					"hint" : "Color 2 saturation",
					"id" : "obj-73",
					"ignoreclick" : 1,
					"maxclass" : "live.toggle",
					"numinlets" : 1,
					"numoutlets" : 1,
					"outlettype" : [ "" ],
					"parameter_enable" : 1,
					"parameter_mappable" : 0,
					"patching_rect" : [ 1519.0, 170.0, 15.0, 15.0 ],
					"presentation" : 1,
					"presentation_rect" : [ 212.0, 3.0, 9.742591857910156, 9.742591857910156 ],
					"rounded" : 15.0,
					"saved_attribute_attributes" : 					{
						"valueof" : 						{
							"parameter_initial" : [ 1 ],
							"parameter_shortname" : "pictctrl[1]",
							"parameter_enum" : [ "off", "on" ],
							"parameter_type" : 2,
							"parameter_longname" : "pictctrl[2]",
							"parameter_initial_enable" : 1,
							"parameter_invisible" : 2,
							"parameter_mmax" : 1
						}

					}
,
					"varname" : "pictctrl[2]"
				}

			}
, 			{
				"box" : 				{
					"activebgcolor" : [ 0.1, 0.1, 0.1, 1.0 ],
					"activebgoncolor" : [ 1.0, 1.0, 1.0, 1.0 ],
					"bgcolor" : [ 0.1, 0.1, 0.1, 1.0 ],
					"bgoncolor" : [ 1.0, 1.0, 1.0, 1.0 ],
					"bordercolor" : [ 1.0, 1.0, 1.0, 1.0 ],
					"focusbordercolor" : [ 0.165741, 0.364658, 0.14032, 1.0 ],
					"hint" : "Color 1 saturation",
					"id" : "obj-58",
					"ignoreclick" : 1,
					"maxclass" : "live.toggle",
					"numinlets" : 1,
					"numoutlets" : 1,
					"outlettype" : [ "" ],
					"parameter_enable" : 1,
					"parameter_mappable" : 0,
					"patching_rect" : [ 964.0, 170.0, 15.0, 15.0 ],
					"presentation" : 1,
					"presentation_rect" : [ 110.142860412597656, 3.0, 9.742591857910156, 9.742591857910156 ],
					"rounded" : 15.0,
					"saved_attribute_attributes" : 					{
						"valueof" : 						{
							"parameter_initial" : [ 1 ],
							"parameter_shortname" : "pictctrl[1]",
							"parameter_enum" : [ "off", "on" ],
							"parameter_type" : 2,
							"parameter_longname" : "pictctrl[3]",
							"parameter_initial_enable" : 1,
							"parameter_invisible" : 2,
							"parameter_mmax" : 1
						}

					}
,
					"varname" : "pictctrl[1]"
				}

			}
, 			{
				"box" : 				{
					"activebgcolor" : [ 0.1, 0.1, 0.1, 1.0 ],
					"activebgoncolor" : [ 1.0, 1.0, 1.0, 1.0 ],
					"bgcolor" : [ 0.1, 0.1, 0.1, 1.0 ],
					"bgoncolor" : [ 1.0, 1.0, 1.0, 1.0 ],
					"bordercolor" : [ 1.0, 1.0, 1.0, 1.0 ],
					"focusbordercolor" : [ 0.165741, 0.364658, 0.14032, 1.0 ],
					"hint" : "Set the Blue part of color 2",
					"id" : "obj-54",
					"ignoreclick" : 1,
					"maxclass" : "live.toggle",
					"numinlets" : 1,
					"numoutlets" : 1,
					"outlettype" : [ "" ],
					"parameter_enable" : 1,
					"parameter_mappable" : 0,
					"patching_rect" : [ 1379.0, 170.0, 15.0, 15.0 ],
					"presentation" : 1,
					"presentation_rect" : [ 187.285720825195312, 3.0, 9.742591857910156, 9.742591857910156 ],
					"rounded" : 15.0,
					"saved_attribute_attributes" : 					{
						"valueof" : 						{
							"parameter_initial" : [ 1 ],
							"parameter_shortname" : "pictctrl[1]",
							"parameter_enum" : [ "off", "on" ],
							"parameter_type" : 2,
							"parameter_longname" : "pictctrl[6]",
							"parameter_initial_enable" : 1,
							"parameter_invisible" : 2,
							"parameter_mmax" : 1
						}

					}
,
					"varname" : "pictctrl[12]"
				}

			}
, 			{
				"box" : 				{
					"activebgcolor" : [ 0.1, 0.1, 0.1, 1.0 ],
					"activebgoncolor" : [ 1.0, 1.0, 1.0, 1.0 ],
					"bgcolor" : [ 0.1, 0.1, 0.1, 1.0 ],
					"bgoncolor" : [ 1.0, 1.0, 1.0, 1.0 ],
					"bordercolor" : [ 1.0, 1.0, 1.0, 1.0 ],
					"focusbordercolor" : [ 0.165741, 0.364658, 0.14032, 1.0 ],
					"hint" : "Set the Red part of color 2",
					"id" : "obj-62",
					"ignoreclick" : 1,
					"maxclass" : "live.toggle",
					"numinlets" : 1,
					"numoutlets" : 1,
					"outlettype" : [ "" ],
					"parameter_enable" : 1,
					"parameter_mappable" : 0,
					"patching_rect" : [ 1110.0, 170.0, 15.0, 15.0 ],
					"presentation" : 1,
					"presentation_rect" : [ 134.857147216796875, 3.0, 9.742591857910156, 9.742591857910156 ],
					"rounded" : 15.0,
					"saved_attribute_attributes" : 					{
						"valueof" : 						{
							"parameter_initial" : [ 1 ],
							"parameter_shortname" : "pictctrl[1]",
							"parameter_enum" : [ "off", "on" ],
							"parameter_type" : 2,
							"parameter_longname" : "pictctrl[8]",
							"parameter_initial_enable" : 1,
							"parameter_invisible" : 2,
							"parameter_mmax" : 1
						}

					}
,
					"varname" : "pictctrl[10]"
				}

			}
, 			{
				"box" : 				{
					"activebgcolor" : [ 0.1, 0.1, 0.1, 1.0 ],
					"activebgoncolor" : [ 1.0, 1.0, 1.0, 1.0 ],
					"bgcolor" : [ 0.1, 0.1, 0.1, 1.0 ],
					"bgoncolor" : [ 1.0, 1.0, 1.0, 1.0 ],
					"bordercolor" : [ 1.0, 1.0, 1.0, 1.0 ],
					"focusbordercolor" : [ 0.165741, 0.364658, 0.14032, 1.0 ],
					"hint" : "Set the Green part of color 2",
					"id" : "obj-64",
					"ignoreclick" : 1,
					"maxclass" : "live.toggle",
					"numinlets" : 1,
					"numoutlets" : 1,
					"outlettype" : [ "" ],
					"parameter_enable" : 1,
					"parameter_mappable" : 0,
					"patching_rect" : [ 1244.0, 170.0, 15.0, 15.0 ],
					"presentation" : 1,
					"presentation_rect" : [ 160.571426391601562, 3.0, 9.742591857910156, 9.742591857910156 ],
					"rounded" : 15.0,
					"saved_attribute_attributes" : 					{
						"valueof" : 						{
							"parameter_initial" : [ 1 ],
							"parameter_shortname" : "pictctrl[1]",
							"parameter_enum" : [ "off", "on" ],
							"parameter_type" : 2,
							"parameter_longname" : "pictctrl[7]",
							"parameter_initial_enable" : 1,
							"parameter_invisible" : 2,
							"parameter_mmax" : 1
						}

					}
,
					"varname" : "pictctrl[11]"
				}

			}
, 			{
				"box" : 				{
					"activebgcolor" : [ 0.1, 0.1, 0.1, 1.0 ],
					"activebgoncolor" : [ 1.0, 1.0, 1.0, 1.0 ],
					"bgcolor" : [ 0.1, 0.1, 0.1, 1.0 ],
					"bgoncolor" : [ 1.0, 1.0, 1.0, 1.0 ],
					"bordercolor" : [ 1.0, 1.0, 1.0, 1.0 ],
					"focusbordercolor" : [ 0.165741, 0.364658, 0.14032, 1.0 ],
					"hint" : "Set the Blue part of color 1",
					"id" : "obj-53",
					"ignoreclick" : 1,
					"maxclass" : "live.toggle",
					"numinlets" : 1,
					"numoutlets" : 1,
					"outlettype" : [ "" ],
					"parameter_enable" : 1,
					"parameter_mappable" : 0,
					"patching_rect" : [ 827.0, 170.0, 15.0, 15.0 ],
					"presentation" : 1,
					"presentation_rect" : [ 83.428573608398438, 3.0, 9.742591857910156, 9.742591857910156 ],
					"rounded" : 15.0,
					"saved_attribute_attributes" : 					{
						"valueof" : 						{
							"parameter_initial" : [ 1 ],
							"parameter_shortname" : "pictctrl[1]",
							"parameter_enum" : [ "off", "on" ],
							"parameter_type" : 2,
							"parameter_longname" : "pictctrl[4]",
							"parameter_initial_enable" : 1,
							"parameter_invisible" : 2,
							"parameter_mmax" : 1
						}

					}
,
					"varname" : "pictctrl[9]"
				}

			}
, 			{
				"box" : 				{
					"activebgcolor" : [ 0.1, 0.1, 0.1, 1.0 ],
					"activebgoncolor" : [ 1.0, 1.0, 1.0, 1.0 ],
					"bgcolor" : [ 0.1, 0.1, 0.1, 1.0 ],
					"bgoncolor" : [ 1.0, 1.0, 1.0, 1.0 ],
					"bordercolor" : [ 1.0, 1.0, 1.0, 1.0 ],
					"focusbordercolor" : [ 0.165741, 0.364658, 0.14032, 1.0 ],
					"hint" : "Set the Red part of color 1",
					"id" : "obj-12",
					"ignoreclick" : 1,
					"maxclass" : "live.toggle",
					"numinlets" : 1,
					"numoutlets" : 1,
					"outlettype" : [ "" ],
					"parameter_enable" : 1,
					"parameter_mappable" : 0,
					"patching_rect" : [ 558.0, 170.0, 15.0, 15.0 ],
					"presentation" : 1,
					"presentation_rect" : [ 31.0, 3.0, 9.742591857910156, 9.742591857910156 ],
					"rounded" : 15.0,
					"saved_attribute_attributes" : 					{
						"valueof" : 						{
							"parameter_initial" : [ 1 ],
							"parameter_shortname" : "pictctrl[1]",
							"parameter_enum" : [ "off", "on" ],
							"parameter_type" : 2,
							"parameter_longname" : "pictctrl[5]",
							"parameter_initial_enable" : 1,
							"parameter_invisible" : 2,
							"parameter_mmax" : 1
						}

					}
,
					"varname" : "pictctrl[7]"
				}

			}
, 			{
				"box" : 				{
					"activebgcolor" : [ 0.1, 0.1, 0.1, 1.0 ],
					"activebgoncolor" : [ 1.0, 1.0, 1.0, 1.0 ],
					"bgcolor" : [ 0.1, 0.1, 0.1, 1.0 ],
					"bgoncolor" : [ 1.0, 1.0, 1.0, 1.0 ],
					"bordercolor" : [ 1.0, 1.0, 1.0, 1.0 ],
					"focusbordercolor" : [ 0.165741, 0.364658, 0.14032, 1.0 ],
					"hint" : "Set the Green part of color 1",
					"id" : "obj-49",
					"ignoreclick" : 1,
					"maxclass" : "live.toggle",
					"numinlets" : 1,
					"numoutlets" : 1,
					"outlettype" : [ "" ],
					"parameter_enable" : 1,
					"parameter_mappable" : 0,
					"patching_rect" : [ 692.0, 170.0, 15.0, 15.0 ],
					"presentation" : 1,
					"presentation_rect" : [ 56.714286804199219, 3.0, 9.742591857910156, 9.742591857910156 ],
					"rounded" : 15.0,
					"saved_attribute_attributes" : 					{
						"valueof" : 						{
							"parameter_initial" : [ 1 ],
							"parameter_shortname" : "pictctrl[1]",
							"parameter_enum" : [ "off", "on" ],
							"parameter_type" : 2,
							"parameter_longname" : "pictctrl[9]",
							"parameter_initial_enable" : 1,
							"parameter_invisible" : 2,
							"parameter_mmax" : 1
						}

					}
,
					"varname" : "pictctrl[8]"
				}

			}
, 			{
				"box" : 				{
					"bgcolor" : [ 0.0, 0.0, 0.0, 1.0 ],
					"elementcolor" : [ 0.0, 0.0, 0.0, 1.0 ],
					"floatoutput" : 1,
					"hint" : "Set the saturation level for color 2.",
					"id" : "obj-46",
					"knobcolor" : [ 1.0, 1.0, 1.0, 1.0 ],
					"maxclass" : "slider",
					"numinlets" : 1,
					"numoutlets" : 1,
					"outlettype" : [ "" ],
					"parameter_enable" : 1,
					"patching_rect" : [ 1450.0, 206.0, 20.0, 140.0 ],
					"presentation" : 1,
					"presentation_rect" : [ 113.0, 36.566974639892578, 10.0, 72.0 ],
					"saved_attribute_attributes" : 					{
						"valueof" : 						{
							"parameter_initial" : [ 1.0 ],
							"parameter_shortname" : "Saturation 2",
							"parameter_type" : 0,
							"parameter_longname" : "Saturation 2",
							"parameter_initial_enable" : 1,
							"parameter_mmax" : 1.0
						}

					}
,
					"size" : 1.0,
					"varname" : "slider[1]"
				}

			}
, 			{
				"box" : 				{
					"bgcolor" : [ 0.0, 0.0, 0.0, 1.0 ],
					"elementcolor" : [ 0.0, 0.0, 0.0, 1.0 ],
					"floatoutput" : 1,
					"hint" : "Set the saturation level for color 1.",
					"id" : "obj-45",
					"knobcolor" : [ 1.0, 1.0, 1.0, 1.0 ],
					"maxclass" : "slider",
					"numinlets" : 1,
					"numoutlets" : 1,
					"outlettype" : [ "" ],
					"parameter_enable" : 1,
					"patching_rect" : [ 895.0, 220.5, 20.0, 140.0 ],
					"presentation" : 1,
					"presentation_rect" : [ 4.0, 36.566974639892578, 10.0, 72.0 ],
					"saved_attribute_attributes" : 					{
						"valueof" : 						{
							"parameter_initial" : [ 1.0 ],
							"parameter_shortname" : "Saturation 1",
							"parameter_type" : 0,
							"parameter_longname" : "Saturation 1",
							"parameter_initial_enable" : 1,
							"parameter_mmax" : 1.0
						}

					}
,
					"size" : 1.0,
					"varname" : "slider"
				}

			}
, 			{
				"box" : 				{
					"hint" : "Choose duotone color 2",
					"id" : "obj-27",
					"maxclass" : "swatch",
					"numinlets" : 3,
					"numoutlets" : 2,
					"outlettype" : [ "", "float" ],
					"parameter_enable" : 1,
					"patching_rect" : [ 1042.0, 362.0, 128.0, 32.0 ],
					"presentation" : 1,
					"presentation_rect" : [ 126.0, 36.566974639892578, 94.0, 72.0 ],
					"saturation" : 1.0,
					"saved_attribute_attributes" : 					{
						"valueof" : 						{
							"parameter_initial" : [ 0.18503049304863, 0.0, 0.543527073330349, 1.0, 0.723404255319149, 1.0, 0.271763536665175 ],
							"parameter_shortname" : "Color 2",
							"parameter_type" : 3,
							"parameter_longname" : "Color 2",
							"parameter_initial_enable" : 1,
							"parameter_invisible" : 1
						}

					}
,
					"varname" : "swatch[1]"
				}

			}
, 			{
				"box" : 				{
					"hint" : "Choose duotone color 1",
					"id" : "obj-28",
					"maxclass" : "swatch",
					"numinlets" : 3,
					"numoutlets" : 2,
					"outlettype" : [ "", "float" ],
					"parameter_enable" : 1,
					"patching_rect" : [ 489.0, 362.0, 128.0, 32.0 ],
					"presentation" : 1,
					"presentation_rect" : [ 17.0, 36.566974639892578, 94.0, 72.0 ],
					"saturation" : 1.0,
					"saved_attribute_attributes" : 					{
						"valueof" : 						{
							"parameter_initial" : [ 0.90985711163343, 0.919698307557945, 0.457162099105737, 1.0, 0.170212765957447, 0.742267404283796, 0.688430203331841 ],
							"parameter_shortname" : "Color 1",
							"parameter_type" : 3,
							"parameter_longname" : "Color 1",
							"parameter_initial_enable" : 1,
							"parameter_invisible" : 1
						}

					}
,
					"varname" : "swatch"
				}

			}
, 			{
				"box" : 				{
					"fontname" : "Ableton Sans Bold Regular",
					"fontsize" : 9.0,
					"hint" : "Video output",
					"id" : "obj-43",
					"maxclass" : "comment",
					"numinlets" : 1,
					"numoutlets" : 0,
					"patching_rect" : [ 34.109558, 179.498412999999999, 41.0, 17.0 ],
					"presentation" : 1,
					"presentation_rect" : [ 3.474807977676392, 110.0, 35.0, 17.0 ],
					"text" : "Video",
					"textcolor" : [ 1.0, 1.0, 1.0, 1.0 ]
				}

			}
, 			{
				"box" : 				{
					"fontname" : "Ableton Sans Bold Regular",
					"fontsize" : 12.0,
					"hint" : "While seeing the world in black and white is compelling for some people, the 2TONR module (based on the jit.charmap object) will help you fulfill your urge to have another entirely different set of binary oppositions to work with. You can use the two palettes to choose the pair of colors whose subtle gradations are applied to your movie, or use Vizzie generator modules to do the adjustment on your behalf.",
					"id" : "obj-51",
					"maxclass" : "comment",
					"numinlets" : 1,
					"numoutlets" : 0,
					"patching_rect" : [ 29.609558, 355.771027000000004, 64.0, 21.0 ],
					"presentation" : 1,
					"presentation_rect" : [ 1.474807977676392, 16.0, 61.0, 21.0 ],
					"text" : "2TONR",
					"textcolor" : [ 1.0, 1.0, 1.0, 1.0 ]
				}

			}
, 			{
				"box" : 				{
					"id" : "obj-60",
					"maxclass" : "newobj",
					"numinlets" : 1,
					"numoutlets" : 2,
					"outlettype" : [ "bang", "" ],
					"patching_rect" : [ 489.0, 455.0, 29.5, 22.0 ],
					"text" : "t b l"
				}

			}
, 			{
				"box" : 				{
					"id" : "obj-42",
					"maxclass" : "newobj",
					"numinlets" : 1,
					"numoutlets" : 2,
					"outlettype" : [ "bang", "" ],
					"patching_rect" : [ 1042.0, 455.0, 29.5, 22.0 ],
					"text" : "t b l"
				}

			}
, 			{
				"box" : 				{
					"fontname" : "Ableton Sans Medium",
					"fontsize" : 12.0,
					"id" : "obj-76",
					"maxclass" : "newobj",
					"numinlets" : 1,
					"numoutlets" : 3,
					"outlettype" : [ "", "", "" ],
					"patching_rect" : [ 1310.0, 249.0, 101.0, 23.0 ],
					"restore" : [ 1.0 ],
					"saved_object_attributes" : 					{
						"parameter_enable" : 0,
						"parameter_mappable" : 0
					}
,
					"text" : "pattr saturation2",
					"varname" : "saturation2[1]"
				}

			}
, 			{
				"box" : 				{
					"fontname" : "Ableton Sans Medium",
					"fontsize" : 12.0,
					"id" : "obj-75",
					"maxclass" : "newobj",
					"numinlets" : 1,
					"numoutlets" : 3,
					"outlettype" : [ "", "", "" ],
					"patching_rect" : [ 757.0, 249.0, 101.0, 23.0 ],
					"restore" : [ 1.0 ],
					"saved_object_attributes" : 					{
						"parameter_enable" : 0,
						"parameter_mappable" : 0
					}
,
					"text" : "pattr saturation1",
					"varname" : "saturation1"
				}

			}
, 			{
				"box" : 				{
					"fontname" : "Ableton Sans Medium",
					"fontsize" : 12.0,
					"id" : "obj-72",
					"maxclass" : "newobj",
					"numinlets" : 1,
					"numoutlets" : 3,
					"outlettype" : [ "", "", "" ],
					"patching_rect" : [ 1450.0, 129.0, 88.0, 23.0 ],
					"text" : "data-handler"
				}

			}
, 			{
				"box" : 				{
					"comment" : "Color 2 saturation",
					"hint" : "Color 2 saturation. off/on messages disable/enable the data inlet.",
					"id" : "obj-74",
					"index" : 0,
					"maxclass" : "inlet",
					"numinlets" : 0,
					"numoutlets" : 1,
					"outlettype" : [ "" ],
					"patching_rect" : [ 1450.0, 96.0, 25.0, 25.0 ]
				}

			}
, 			{
				"box" : 				{
					"id" : "obj-70",
					"maxclass" : "message",
					"numinlets" : 2,
					"numoutlets" : 1,
					"outlettype" : [ "" ],
					"patching_rect" : [ 601.0, 314.0, 78.0, 22.0 ],
					"text" : "saturation $1"
				}

			}
, 			{
				"box" : 				{
					"fontname" : "Ableton Sans Medium",
					"fontsize" : 12.0,
					"id" : "obj-55",
					"maxclass" : "newobj",
					"numinlets" : 1,
					"numoutlets" : 3,
					"outlettype" : [ "", "", "" ],
					"patching_rect" : [ 895.0, 129.0, 88.0, 23.0 ],
					"text" : "data-handler"
				}

			}
, 			{
				"box" : 				{
					"comment" : "Color 1 saturation",
					"id" : "obj-59",
					"index" : 0,
					"maxclass" : "inlet",
					"numinlets" : 0,
					"numoutlets" : 1,
					"outlettype" : [ "" ],
					"patching_rect" : [ 895.0, 96.0, 25.0, 25.0 ]
				}

			}
, 			{
				"box" : 				{
					"id" : "obj-44",
					"maxclass" : "message",
					"numinlets" : 2,
					"numoutlets" : 1,
					"outlettype" : [ "" ],
					"patching_rect" : [ 1180.0, 314.0, 78.0, 22.0 ],
					"text" : "saturation $1"
				}

			}
, 			{
				"box" : 				{
					"id" : "obj-125",
					"maxclass" : "newobj",
					"numinlets" : 1,
					"numoutlets" : 1,
					"outlettype" : [ "" ],
					"patching_rect" : [ 339.0, 104.0, 70.0, 22.0 ],
					"text" : "loadmess 1"
				}

			}
, 			{
				"box" : 				{
					"color" : [ 0.941176, 0.690196, 0.196078, 1.0 ],
					"id" : "obj-9",
					"maxclass" : "newobj",
					"numinlets" : 2,
					"numoutlets" : 2,
					"outlettype" : [ "jit_gl_texture", "" ],
					"patching_rect" : [ 333.5, 650.0, 174.0, 22.0 ],
					"text" : "jit.gl.slab @file cc.colormap.jxs"
				}

			}
, 			{
				"box" : 				{
					"color" : [ 0.941176, 0.690196, 0.196078, 1.0 ],
					"id" : "obj-13",
					"maxclass" : "newobj",
					"numinlets" : 1,
					"numoutlets" : 2,
					"outlettype" : [ "", "" ],
					"patching_rect" : [ 352.5, 605.0, 67.0, 22.0 ],
					"text" : "vzgl-object"
				}

			}
, 			{
				"box" : 				{
					"fontname" : "Ableton Sans Medium",
					"fontsize" : 12.0,
					"id" : "obj-2",
					"maxclass" : "newobj",
					"numinlets" : 1,
					"numoutlets" : 3,
					"outlettype" : [ "", "", "" ],
					"patching_rect" : [ 1072.0, 314.0, 81.0, 23.0 ],
					"restore" : [ 0.891057769739318, 0.487971517774794, 1.0, 1.0, 0.797872340425532, 1.0, 0.743985758887397 ],
					"saved_object_attributes" : 					{
						"parameter_enable" : 0,
						"parameter_mappable" : 0
					}
,
					"text" : "pattr color12",
					"varname" : "color12"
				}

			}
, 			{
				"box" : 				{
					"fontname" : "Ableton Sans Medium",
					"fontsize" : 12.0,
					"id" : "obj-1",
					"maxclass" : "newobj",
					"numinlets" : 1,
					"numoutlets" : 3,
					"outlettype" : [ "", "", "" ],
					"patching_rect" : [ 523.0, 314.0, 73.0, 23.0 ],
					"restore" : [ 0.803830279807954, 0.821304851108128, 0.0, 1.0, 0.170212765957447, 1.0, 0.410652425554064 ],
					"saved_object_attributes" : 					{
						"parameter_enable" : 0,
						"parameter_mappable" : 0
					}
,
					"text" : "pattr color1",
					"varname" : "color1"
				}

			}
, 			{
				"box" : 				{
					"fontname" : "Ableton Sans Medium",
					"fontsize" : 12.0,
					"id" : "obj-47",
					"maxclass" : "newobj",
					"numinlets" : 1,
					"numoutlets" : 3,
					"outlettype" : [ "", "", "" ],
					"patching_rect" : [ 1310.0, 129.0, 88.0, 23.0 ],
					"text" : "data-handler"
				}

			}
, 			{
				"box" : 				{
					"fontname" : "Ableton Sans Medium",
					"fontsize" : 12.0,
					"id" : "obj-57",
					"maxclass" : "newobj",
					"numinlets" : 1,
					"numoutlets" : 3,
					"outlettype" : [ "", "", "" ],
					"patching_rect" : [ 1041.0, 129.0, 88.0, 23.0 ],
					"text" : "data-handler"
				}

			}
, 			{
				"box" : 				{
					"fontname" : "Ableton Sans Medium",
					"fontsize" : 12.0,
					"id" : "obj-63",
					"maxclass" : "newobj",
					"numinlets" : 1,
					"numoutlets" : 3,
					"outlettype" : [ "", "", "" ],
					"patching_rect" : [ 1175.0, 129.0, 88.0, 23.0 ],
					"text" : "data-handler"
				}

			}
, 			{
				"box" : 				{
					"fontname" : "Ableton Sans Medium",
					"fontsize" : 12.0,
					"id" : "obj-56",
					"maxclass" : "newobj",
					"numinlets" : 2,
					"numoutlets" : 4,
					"outlettype" : [ "", "", "", "off" ],
					"patching_rect" : [ 224.0, 141.17053199999998, 85.0, 23.0 ],
					"text" : "video-handler"
				}

			}
, 			{
				"box" : 				{
					"fontname" : "Ableton Sans Medium",
					"fontsize" : 12.0,
					"id" : "obj-52",
					"maxclass" : "newobj",
					"numinlets" : 1,
					"numoutlets" : 3,
					"outlettype" : [ "", "", "" ],
					"patching_rect" : [ 758.0, 129.0, 88.0, 23.0 ],
					"text" : "data-handler"
				}

			}
, 			{
				"box" : 				{
					"fontname" : "Ableton Sans Medium",
					"fontsize" : 12.0,
					"id" : "obj-50",
					"maxclass" : "newobj",
					"numinlets" : 1,
					"numoutlets" : 3,
					"outlettype" : [ "", "", "" ],
					"patching_rect" : [ 489.0, 129.0, 88.0, 23.0 ],
					"text" : "data-handler"
				}

			}
, 			{
				"box" : 				{
					"fontname" : "Ableton Sans Medium",
					"fontsize" : 12.0,
					"id" : "obj-48",
					"maxclass" : "newobj",
					"numinlets" : 1,
					"numoutlets" : 3,
					"outlettype" : [ "", "", "" ],
					"patching_rect" : [ 623.0, 129.0, 88.0, 23.0 ],
					"text" : "data-handler"
				}

			}
, 			{
				"box" : 				{
					"comment" : "Set the Red part of color 2",
					"id" : "obj-20",
					"index" : 0,
					"maxclass" : "inlet",
					"numinlets" : 0,
					"numoutlets" : 1,
					"outlettype" : [ "" ],
					"patching_rect" : [ 1041.0, 96.0, 25.0, 25.0 ]
				}

			}
, 			{
				"box" : 				{
					"comment" : "Set the Green part of color 2",
					"id" : "obj-31",
					"index" : 0,
					"maxclass" : "inlet",
					"numinlets" : 0,
					"numoutlets" : 1,
					"outlettype" : [ "" ],
					"patching_rect" : [ 1175.0, 96.0, 25.0, 25.0 ]
				}

			}
, 			{
				"box" : 				{
					"fontname" : "Ableton Sans Medium",
					"fontsize" : 12.0,
					"id" : "obj-32",
					"maxclass" : "newobj",
					"numinlets" : 3,
					"numoutlets" : 1,
					"outlettype" : [ "" ],
					"patching_rect" : [ 1041.0, 279.0, 68.0, 23.0 ],
					"text" : "pak 0. 0. 0."
				}

			}
, 			{
				"box" : 				{
					"comment" : "Set the Blue part of color 2",
					"id" : "obj-35",
					"index" : 0,
					"maxclass" : "inlet",
					"numinlets" : 0,
					"numoutlets" : 1,
					"outlettype" : [ "" ],
					"patching_rect" : [ 1310.0, 96.0, 25.0, 25.0 ]
				}

			}
, 			{
				"box" : 				{
					"comment" : "Set the Red part of color 1",
					"id" : "obj-18",
					"index" : 0,
					"maxclass" : "inlet",
					"numinlets" : 0,
					"numoutlets" : 1,
					"outlettype" : [ "" ],
					"patching_rect" : [ 489.0, 96.0, 25.0, 25.0 ]
				}

			}
, 			{
				"box" : 				{
					"comment" : "Set the Green part of color 1",
					"id" : "obj-16",
					"index" : 0,
					"maxclass" : "inlet",
					"numinlets" : 0,
					"numoutlets" : 1,
					"outlettype" : [ "" ],
					"patching_rect" : [ 623.0, 96.0, 25.0, 25.0 ]
				}

			}
, 			{
				"box" : 				{
					"fontname" : "Ableton Sans Medium",
					"fontsize" : 12.0,
					"id" : "obj-7",
					"maxclass" : "newobj",
					"numinlets" : 3,
					"numoutlets" : 1,
					"outlettype" : [ "" ],
					"patching_rect" : [ 489.0, 279.0, 68.0, 23.0 ],
					"text" : "pak 0. 0. 0."
				}

			}
, 			{
				"box" : 				{
					"fontname" : "Ableton Sans Medium",
					"fontsize" : 12.0,
					"id" : "obj-33",
					"maxclass" : "newobj",
					"numinlets" : 1,
					"numoutlets" : 2,
					"outlettype" : [ "", "bang" ],
					"patching_rect" : [ 246.0, 455.0, 111.5, 23.0 ],
					"text" : "t l b"
				}

			}
, 			{
				"box" : 				{
					"fontname" : "Ableton Sans Medium",
					"fontsize" : 12.0,
					"id" : "obj-23",
					"maxclass" : "message",
					"numinlets" : 2,
					"numoutlets" : 1,
					"outlettype" : [ "" ],
					"patching_rect" : [ 1042.0, 426.0, 106.0, 23.0 ],
					"text" : "end 0. $1 $2 $3"
				}

			}
, 			{
				"box" : 				{
					"fontname" : "Ableton Sans Medium",
					"fontsize" : 12.0,
					"id" : "obj-24",
					"maxclass" : "message",
					"numinlets" : 2,
					"numoutlets" : 1,
					"outlettype" : [ "" ],
					"patching_rect" : [ 489.0, 426.0, 113.0, 23.0 ],
					"text" : "start 0. $1 $2 $3"
				}

			}
, 			{
				"box" : 				{
					"fontname" : "Ableton Sans Medium",
					"fontsize" : 12.0,
					"id" : "obj-29",
					"maxclass" : "newobj",
					"numinlets" : 1,
					"numoutlets" : 2,
					"outlettype" : [ "jit_matrix", "" ],
					"patching_rect" : [ 465.0, 543.0, 138.0, 23.0 ],
					"text" : "jit.gradient 4 char 256 1"
				}

			}
, 			{
				"box" : 				{
					"comment" : "Video output",
					"id" : "obj-14",
					"index" : 0,
					"maxclass" : "outlet",
					"numinlets" : 1,
					"numoutlets" : 0,
					"patching_rect" : [ 224.0, 779.0, 25.0, 25.0 ]
				}

			}
, 			{
				"box" : 				{
					"comment" : "Set the Blue part of color 1",
					"id" : "obj-6",
					"index" : 0,
					"maxclass" : "inlet",
					"numinlets" : 0,
					"numoutlets" : 1,
					"outlettype" : [ "" ],
					"patching_rect" : [ 758.0, 96.0, 25.0, 25.0 ]
				}

			}
, 			{
				"box" : 				{
					"comment" : "Video input",
					"id" : "obj-5",
					"index" : 0,
					"maxclass" : "inlet",
					"numinlets" : 0,
					"numoutlets" : 1,
					"outlettype" : [ "" ],
					"patching_rect" : [ 217.0, 96.0, 25.0, 25.0 ]
				}

			}
, 			{
				"box" : 				{
					"align" : 2,
					"bgcolor" : [ 0.3, 0.3, 0.3, 1.0 ],
					"bgoncolor" : [ 0.165741, 0.364658, 0.14032, 1.0 ],
					"fontname" : "Ableton Sans Bold Regular",
					"fontsize" : 12.0,
					"hint" : "While seeing the world in black and white is compelling for some people, the 2TONR module (based on the jit.charmap object) will help you fulfill your urge to have another entirely different set of binary oppositions to work with. You can use the two palettes to choose the pair of colors whose subtle gradations are applied to your movie, or use Vizzie generator modules to do the adjustment on your behalf.",
					"id" : "obj-3",
					"legacytextcolor" : 1,
					"maxclass" : "textbutton",
					"mode" : 1,
					"numinlets" : 1,
					"numoutlets" : 3,
					"outlettype" : [ "", "", "int" ],
					"parameter_enable" : 1,
					"patching_rect" : [ 339.0, 141.17053199999998, 40.0, 20.0 ],
					"presentation" : 1,
					"presentation_rect" : [ 0.474808007478714, 14.566974639892578, 228.0, 19.0 ],
					"saved_attribute_attributes" : 					{
						"valueof" : 						{
							"parameter_initial" : [ 1 ],
							"parameter_shortname" : "range",
							"parameter_enum" : [ "off", "on" ],
							"parameter_type" : 3,
							"parameter_longname" : "range[1]",
							"parameter_initial_enable" : 1,
							"parameter_invisible" : 1,
							"parameter_mmax" : 1.0
						}

					}
,
					"text" : "OFF  ",
					"textcolor" : [ 1.0, 1.0, 1.0, 1.0 ],
					"textjustification" : 2,
					"texton" : "ON  ",
					"textoncolor" : [ 1.0, 1.0, 1.0, 1.0 ],
					"textovercolor" : [ 0.1, 0.1, 0.1, 1.0 ],
					"usebgoncolor" : 1,
					"usetextovercolor" : 1,
					"varname" : "FreqMode[3]"
				}

			}
, 			{
				"box" : 				{
					"angle" : 0.0,
					"bgcolor" : [ 0.165741, 0.364658, 0.14032, 1.0 ],
					"bordercolor" : [ 0.165741, 0.364658, 0.14032, 1.0 ],
					"id" : "obj-109",
					"maxclass" : "panel",
					"mode" : 0,
					"numinlets" : 1,
					"numoutlets" : 0,
					"patching_rect" : [ 22.609558, 100.170531999999994, 64.0, 64.0 ],
					"presentation" : 1,
					"presentation_rect" : [ 0.474808007478714, 15.566974639892578, 437.268768310546875, 19.0 ],
					"proportion" : 0.39,
					"rounded" : 0
				}

			}
, 			{
				"box" : 				{
					"angle" : 0.0,
					"bgcolor" : [ 0.0, 0.0, 0.0, 1.0 ],
					"id" : "obj-110",
					"maxclass" : "panel",
					"mode" : 0,
					"numinlets" : 1,
					"numoutlets" : 0,
					"patching_rect" : [ 22.609558, 32.437531, 64.0, 64.0 ],
					"presentation" : 1,
					"presentation_rect" : [ 0.474808007478714, -0.433025002479553, 437.268768310546875, 17.0 ],
					"proportion" : 0.39,
					"rounded" : 0
				}

			}
, 			{
				"box" : 				{
					"angle" : 0.0,
					"bgcolor" : [ 0.0, 0.0, 0.0, 1.0 ],
					"id" : "obj-111",
					"maxclass" : "panel",
					"mode" : 0,
					"numinlets" : 1,
					"numoutlets" : 0,
					"patching_rect" : [ 22.609558, 314.0, 64.0, 64.0 ],
					"presentation" : 1,
					"presentation_rect" : [ 0.474808007478714, 109.566970825195312, 437.268768310546875, 35.433025360107422 ],
					"proportion" : 0.39,
					"rounded" : 0
				}

			}
, 			{
				"box" : 				{
					"angle" : 0.0,
					"bgcolor" : [ 0.65098, 0.666667, 0.662745, 1.0 ],
					"id" : "obj-113",
					"maxclass" : "panel",
					"mode" : 0,
					"numinlets" : 1,
					"numoutlets" : 0,
					"patching_rect" : [ 22.609558, 169.928955000000002, 64.0, 64.0 ],
					"presentation" : 1,
					"presentation_rect" : [ 0.474808007478714, 15.566974639892578, 437.268768310546875, 129.433029174804688 ],
					"proportion" : 0.39,
					"rounded" : 0
				}

			}
 ],
		"lines" : [ 			{
				"patchline" : 				{
					"destination" : [ "obj-28", 0 ],
					"source" : [ "obj-1", 1 ]
				}

			}
, 			{
				"patchline" : 				{
					"destination" : [ "obj-3", 0 ],
					"source" : [ "obj-125", 0 ]
				}

			}
, 			{
				"patchline" : 				{
					"destination" : [ "obj-9", 0 ],
					"source" : [ "obj-13", 0 ]
				}

			}
, 			{
				"patchline" : 				{
					"destination" : [ "obj-48", 0 ],
					"source" : [ "obj-16", 0 ]
				}

			}
, 			{
				"patchline" : 				{
					"destination" : [ "obj-50", 0 ],
					"source" : [ "obj-18", 0 ]
				}

			}
, 			{
				"patchline" : 				{
					"destination" : [ "obj-27", 0 ],
					"source" : [ "obj-2", 1 ]
				}

			}
, 			{
				"patchline" : 				{
					"destination" : [ "obj-57", 0 ],
					"source" : [ "obj-20", 0 ]
				}

			}
, 			{
				"patchline" : 				{
					"destination" : [ "obj-42", 0 ],
					"source" : [ "obj-23", 0 ]
				}

			}
, 			{
				"patchline" : 				{
					"destination" : [ "obj-60", 0 ],
					"source" : [ "obj-24", 0 ]
				}

			}
, 			{
				"patchline" : 				{
					"destination" : [ "obj-23", 0 ],
					"source" : [ "obj-27", 0 ]
				}

			}
, 			{
				"patchline" : 				{
					"destination" : [ "obj-24", 0 ],
					"source" : [ "obj-28", 0 ]
				}

			}
, 			{
				"patchline" : 				{
					"destination" : [ "obj-9", 1 ],
					"source" : [ "obj-29", 0 ]
				}

			}
, 			{
				"patchline" : 				{
					"destination" : [ "obj-56", 1 ],
					"source" : [ "obj-3", 0 ]
				}

			}
, 			{
				"patchline" : 				{
					"destination" : [ "obj-63", 0 ],
					"source" : [ "obj-31", 0 ]
				}

			}
, 			{
				"patchline" : 				{
					"destination" : [ "obj-27", 0 ],
					"source" : [ "obj-32", 0 ]
				}

			}
, 			{
				"patchline" : 				{
					"destination" : [ "obj-13", 0 ],
					"order" : 0,
					"source" : [ "obj-33", 0 ]
				}

			}
, 			{
				"patchline" : 				{
					"destination" : [ "obj-29", 0 ],
					"midpoints" : [ 348.0, 521.5, 474.5, 521.5 ],
					"source" : [ "obj-33", 1 ]
				}

			}
, 			{
				"patchline" : 				{
					"destination" : [ "obj-9", 0 ],
					"order" : 1,
					"source" : [ "obj-33", 0 ]
				}

			}
, 			{
				"patchline" : 				{
					"destination" : [ "obj-47", 0 ],
					"source" : [ "obj-35", 0 ]
				}

			}
, 			{
				"patchline" : 				{
					"destination" : [ "obj-29", 0 ],
					"midpoints" : [ 1062.0, 488.0, 474.5, 488.0 ],
					"source" : [ "obj-42", 1 ]
				}

			}
, 			{
				"patchline" : 				{
					"destination" : [ "obj-29", 0 ],
					"midpoints" : [ 1051.5, 486.5, 474.5, 486.5 ],
					"source" : [ "obj-42", 0 ]
				}

			}
, 			{
				"patchline" : 				{
					"destination" : [ "obj-27", 0 ],
					"source" : [ "obj-44", 0 ]
				}

			}
, 			{
				"patchline" : 				{
					"destination" : [ "obj-70", 0 ],
					"source" : [ "obj-45", 0 ]
				}

			}
, 			{
				"patchline" : 				{
					"destination" : [ "obj-44", 0 ],
					"source" : [ "obj-46", 0 ]
				}

			}
, 			{
				"patchline" : 				{
					"destination" : [ "obj-32", 2 ],
					"source" : [ "obj-47", 2 ]
				}

			}
, 			{
				"patchline" : 				{
					"destination" : [ "obj-32", 2 ],
					"midpoints" : [ 1319.5, 237.0, 1099.5, 237.0 ],
					"source" : [ "obj-47", 0 ]
				}

			}
, 			{
				"patchline" : 				{
					"destination" : [ "obj-54", 0 ],
					"midpoints" : [ 1354.0, 160.5, 1388.0, 160.5 ],
					"source" : [ "obj-47", 1 ]
				}

			}
, 			{
				"patchline" : 				{
					"destination" : [ "obj-49", 0 ],
					"midpoints" : [ 667.0, 160.5, 701.0, 160.5 ],
					"source" : [ "obj-48", 1 ]
				}

			}
, 			{
				"patchline" : 				{
					"destination" : [ "obj-7", 1 ],
					"source" : [ "obj-48", 2 ]
				}

			}
, 			{
				"patchline" : 				{
					"destination" : [ "obj-7", 1 ],
					"midpoints" : [ 632.5, 215.0, 523.0, 215.0 ],
					"source" : [ "obj-48", 0 ]
				}

			}
, 			{
				"patchline" : 				{
					"destination" : [ "obj-56", 0 ],
					"source" : [ "obj-5", 0 ]
				}

			}
, 			{
				"patchline" : 				{
					"destination" : [ "obj-12", 0 ],
					"midpoints" : [ 533.0, 160.5, 567.0, 160.5 ],
					"source" : [ "obj-50", 1 ]
				}

			}
, 			{
				"patchline" : 				{
					"destination" : [ "obj-7", 0 ],
					"source" : [ "obj-50", 2 ]
				}

			}
, 			{
				"patchline" : 				{
					"destination" : [ "obj-7", 0 ],
					"source" : [ "obj-50", 0 ]
				}

			}
, 			{
				"patchline" : 				{
					"destination" : [ "obj-53", 0 ],
					"midpoints" : [ 802.0, 160.5, 836.0, 160.5 ],
					"source" : [ "obj-52", 1 ]
				}

			}
, 			{
				"patchline" : 				{
					"destination" : [ "obj-7", 2 ],
					"source" : [ "obj-52", 2 ]
				}

			}
, 			{
				"patchline" : 				{
					"destination" : [ "obj-7", 2 ],
					"midpoints" : [ 767.5, 239.0, 547.5, 239.0 ],
					"source" : [ "obj-52", 0 ]
				}

			}
, 			{
				"patchline" : 				{
					"destination" : [ "obj-45", 0 ],
					"source" : [ "obj-55", 2 ]
				}

			}
, 			{
				"patchline" : 				{
					"destination" : [ "obj-45", 0 ],
					"midpoints" : [ 904.5, 185.75, 904.5, 185.75 ],
					"source" : [ "obj-55", 0 ]
				}

			}
, 			{
				"patchline" : 				{
					"destination" : [ "obj-58", 0 ],
					"midpoints" : [ 939.0, 160.5, 973.0, 160.5 ],
					"source" : [ "obj-55", 1 ]
				}

			}
, 			{
				"patchline" : 				{
					"destination" : [ "obj-14", 0 ],
					"source" : [ "obj-56", 0 ]
				}

			}
, 			{
				"patchline" : 				{
					"destination" : [ "obj-3", 0 ],
					"source" : [ "obj-56", 2 ]
				}

			}
, 			{
				"patchline" : 				{
					"destination" : [ "obj-33", 0 ],
					"source" : [ "obj-56", 1 ]
				}

			}
, 			{
				"patchline" : 				{
					"destination" : [ "obj-32", 0 ],
					"source" : [ "obj-57", 2 ]
				}

			}
, 			{
				"patchline" : 				{
					"destination" : [ "obj-32", 0 ],
					"midpoints" : [ 1050.5, 215.0, 1050.5, 215.0 ],
					"source" : [ "obj-57", 0 ]
				}

			}
, 			{
				"patchline" : 				{
					"destination" : [ "obj-62", 0 ],
					"midpoints" : [ 1085.0, 160.5, 1119.0, 160.5 ],
					"source" : [ "obj-57", 1 ]
				}

			}
, 			{
				"patchline" : 				{
					"destination" : [ "obj-55", 0 ],
					"source" : [ "obj-59", 0 ]
				}

			}
, 			{
				"patchline" : 				{
					"destination" : [ "obj-52", 0 ],
					"source" : [ "obj-6", 0 ]
				}

			}
, 			{
				"patchline" : 				{
					"destination" : [ "obj-29", 0 ],
					"source" : [ "obj-60", 1 ]
				}

			}
, 			{
				"patchline" : 				{
					"destination" : [ "obj-29", 0 ],
					"source" : [ "obj-60", 0 ]
				}

			}
, 			{
				"patchline" : 				{
					"destination" : [ "obj-32", 1 ],
					"source" : [ "obj-63", 2 ]
				}

			}
, 			{
				"patchline" : 				{
					"destination" : [ "obj-32", 1 ],
					"midpoints" : [ 1184.5, 215.0, 1075.0, 215.0 ],
					"source" : [ "obj-63", 0 ]
				}

			}
, 			{
				"patchline" : 				{
					"destination" : [ "obj-64", 0 ],
					"midpoints" : [ 1219.0, 160.5, 1253.0, 160.5 ],
					"source" : [ "obj-63", 1 ]
				}

			}
, 			{
				"patchline" : 				{
					"destination" : [ "obj-28", 0 ],
					"source" : [ "obj-7", 0 ]
				}

			}
, 			{
				"patchline" : 				{
					"destination" : [ "obj-28", 0 ],
					"source" : [ "obj-70", 0 ]
				}

			}
, 			{
				"patchline" : 				{
					"destination" : [ "obj-46", 0 ],
					"midpoints" : [ 1450.0, 202.0 ],
					"source" : [ "obj-72", 2 ]
				}

			}
, 			{
				"patchline" : 				{
					"destination" : [ "obj-46", 0 ],
					"midpoints" : [ 1459.5, 178.5, 1459.5, 178.5 ],
					"source" : [ "obj-72", 0 ]
				}

			}
, 			{
				"patchline" : 				{
					"destination" : [ "obj-73", 0 ],
					"midpoints" : [ 1494.0, 160.5, 1528.0, 160.5 ],
					"source" : [ "obj-72", 1 ]
				}

			}
, 			{
				"patchline" : 				{
					"destination" : [ "obj-72", 0 ],
					"source" : [ "obj-74", 0 ]
				}

			}
, 			{
				"patchline" : 				{
					"destination" : [ "obj-45", 0 ],
					"source" : [ "obj-75", 1 ]
				}

			}
, 			{
				"patchline" : 				{
					"destination" : [ "obj-46", 0 ],
					"source" : [ "obj-76", 1 ]
				}

			}
, 			{
				"patchline" : 				{
					"destination" : [ "obj-14", 0 ],
					"source" : [ "obj-9", 0 ]
				}

			}
 ],
		"parameters" : 		{
			"obj-54" : [ "pictctrl[6]", "", 0 ],
			"obj-12" : [ "pictctrl[5]", "", 0 ],
			"obj-27" : [ "Color 2", "", 0 ],
			"obj-28" : [ "Color 1", "", 0 ],
			"obj-73" : [ "pictctrl[2]", "", 0 ],
			"obj-56::obj-23" : [ "gswitch2[2]", "", 0 ],
			"obj-58" : [ "pictctrl[3]", "", 0 ],
			"obj-3" : [ "range[1]", "", 0 ],
			"obj-64" : [ "pictctrl[7]", "", 0 ],
			"obj-46" : [ "Saturation 2", "", 0 ],
			"obj-45" : [ "Saturation 1", "", 0 ],
			"obj-62" : [ "pictctrl[8]", "", 0 ],
			"obj-49" : [ "pictctrl[9]", "", 0 ],
			"obj-53" : [ "pictctrl[4]", "", 0 ],
			"parameterbanks" : 			{

			}

		}
,
		"dependency_cache" : [ 			{
				"name" : "data-handler.maxpat",
				"bootpath" : "~/Documents/Max 8/Packages/Vizzie/patchers/utils",
				"patcherrelativepath" : "../../../../../../../Users/gtaylor/Documents/Max 8/Packages/Vizzie/patchers/utils",
				"type" : "JSON",
				"implicit" : 1
			}
, 			{
				"name" : "vzgl-object.maxpat",
				"bootpath" : "~/Documents/Max 8/Packages/Vizzie/patchers/utils",
				"patcherrelativepath" : "../../../../../../../Users/gtaylor/Documents/Max 8/Packages/Vizzie/patchers/utils",
				"type" : "JSON",
				"implicit" : 1
			}
, 			{
				"name" : "vizzie-global.js",
				"bootpath" : "~/Documents/Max 8/Packages/Vizzie/code",
				"patcherrelativepath" : "../../../../../../../Users/gtaylor/Documents/Max 8/Packages/Vizzie/code",
				"type" : "TEXT",
				"implicit" : 1
			}
, 			{
				"name" : "video-handler.maxpat",
				"bootpath" : "~/Documents/Max 8/Packages/Vizzie/patchers/utils",
				"patcherrelativepath" : "../../../../../../../Users/gtaylor/Documents/Max 8/Packages/Vizzie/patchers/utils",
				"type" : "JSON",
				"implicit" : 1
			}
, 			{
				"name" : "vzgl-outputdim.maxpat",
				"bootpath" : "~/Documents/Max 8/Packages/Vizzie/patchers/utils",
				"patcherrelativepath" : "../../../../../../../Users/gtaylor/Documents/Max 8/Packages/Vizzie/patchers/utils",
				"type" : "JSON",
				"implicit" : 1
			}
 ],
		"autosave" : 0,
		"bgcolor" : [ 0.5, 0.8, 0.5, 1.0 ]
	}

}
